<svg width="25" height="24" viewBox="0 0 25 24" fill="none" xmlns="http://www.w3.org/2000/svg">
<path fill-rule="evenodd" clip-rule="evenodd" d="M7.25 15.75H17.75V12C17.75 10.7574 18.7574 9.75 20 9.75C21.2426 9.75 22.25 10.7574 22.25 12C22.25 12.83 21.8018 13.5579 21.1234 13.9504L20 14.6002V20.25H5V14.6002L3.87663 13.9504C3.19824 13.5579 2.75 12.83 2.75 12C2.75 10.7574 3.75736 9.75 5 9.75C6.24264 9.75 7.25 10.7574 7.25 12V15.75Z" fill="#FF9D00" fill-opacity="0.15"/>
<path fill-rule="evenodd" clip-rule="evenodd" d="M21.5 7.75606V6C21.5 3.51472 19.4853 1.5 17 1.5H8C5.51472 1.5 3.5 3.51472 3.5 6V7.75606C1.75221 8.37381 0.5 10.0407 0.5 12C0.5 13.6656 1.40495 15.1199 2.75 15.898V22.5H22.25V15.898C23.5951 15.1199 24.5 13.6656 24.5 12C24.5 10.0407 23.2478 8.37381 21.5 7.75606ZM17 3.75H8C6.75736 3.75 5.75 4.75736 5.75 6V7.56222C7.87828 7.91928 9.5 9.77025 9.5 12V13.5H15.5V12C15.5 9.77025 17.1217 7.91928 19.25 7.56222V6C19.25 4.75736 18.2426 3.75 17 3.75ZM7.25 15.75H17.75V12C17.75 10.7574 18.7574 9.75 20 9.75C21.2426 9.75 22.25 10.7574 22.25 12C22.25 12.83 21.8018 13.5579 21.1234 13.9504L20 14.6002V20.25H5V14.6002L3.87663 13.9504C3.19824 13.5579 2.75 12.83 2.75 12C2.75 10.7574 3.75736 9.75 5 9.75C6.24264 9.75 7.25 10.7574 7.25 12V15.75Z" fill="#FF9D00"/>
</svg>
