<svg width="31" height="30" viewBox="0 0 31 30" fill="none" xmlns="http://www.w3.org/2000/svg">
<path fill-rule="evenodd" clip-rule="evenodd" d="M8.9375 19.6875H22.0625V15C22.0625 13.4467 23.3217 12.1875 24.875 12.1875C26.4283 12.1875 27.6875 13.4467 27.6875 15C27.6875 16.0375 27.1272 16.9474 26.2792 17.438L24.875 18.2502V25.3125H6.125V18.2502L4.72079 17.438C3.8728 16.9474 3.3125 16.0375 3.3125 15C3.3125 13.4467 4.5717 12.1875 6.125 12.1875C7.6783 12.1875 8.9375 13.4467 8.9375 15V19.6875Z" fill="#FF9D00" fill-opacity="0.15"/>
<path fill-rule="evenodd" clip-rule="evenodd" d="M26.75 9.69507V7.5C26.75 4.3934 24.2316 1.875 21.125 1.875H9.875C6.7684 1.875 4.25 4.3934 4.25 7.5V9.69507C2.06526 10.4673 0.5 12.5508 0.5 15C0.5 17.082 1.63118 18.8999 3.3125 19.8725V28.125H27.6875V19.8725C29.3688 18.8999 30.5 17.082 30.5 15C30.5 12.5508 28.9347 10.4673 26.75 9.69507ZM21.125 4.6875H9.875C8.3217 4.6875 7.0625 5.9467 7.0625 7.5V9.45277C9.72286 9.8991 11.75 12.2128 11.75 15V16.875H19.25V15C19.25 12.2128 21.2771 9.8991 23.9375 9.45277V7.5C23.9375 5.9467 22.6783 4.6875 21.125 4.6875ZM8.9375 19.6875H22.0625V15C22.0625 13.4467 23.3217 12.1875 24.875 12.1875C26.4283 12.1875 27.6875 13.4467 27.6875 15C27.6875 16.0375 27.1272 16.9474 26.2792 17.438L24.875 18.2502V25.3125H6.125V18.2502L4.72079 17.438C3.8728 16.9474 3.3125 16.0375 3.3125 15C3.3125 13.4467 4.5717 12.1875 6.125 12.1875C7.6783 12.1875 8.9375 13.4467 8.9375 15V19.6875Z" fill="#FF9D00"/>
</svg>
