<svg width="31" height="30" viewBox="0 0 31 30" fill="none" xmlns="http://www.w3.org/2000/svg">
<path d="M6.75 2.5H24.25C24.9375 2.5 25.5 3.0625 25.5 3.75V26.25C25.5 26.9375 24.9375 27.5 24.25 27.5H6.75C6.0625 27.5 5.5 26.9375 5.5 26.25V3.75C5.5 3.0625 6.0625 2.5 6.75 2.5Z" stroke="#0080FF" stroke-width="1.5" stroke-linecap="round" stroke-linejoin="round"/>
<path d="M15.5 21.25C18.9518 21.25 21.75 18.4518 21.75 15C21.75 11.5482 18.9518 8.75 15.5 8.75C12.0482 8.75 9.25 11.5482 9.25 15C9.25 18.4518 12.0482 21.25 15.5 21.25Z" stroke="#0080FF" stroke-width="1.5" stroke-linecap="round" stroke-linejoin="round"/>
<path d="M15.5 16.25C16.1904 16.25 16.75 15.6904 16.75 15C16.75 14.3096 16.1904 13.75 15.5 13.75C14.8096 13.75 14.25 14.3096 14.25 15C14.25 15.6904 14.8096 16.25 15.5 16.25Z" stroke="#0080FF" stroke-width="1.5" stroke-linecap="round" stroke-linejoin="round"/>
<path d="M21.7375 6.25H21.7626" stroke="#0080FF" stroke-width="1.5" stroke-linecap="round" stroke-linejoin="round"/>
<path d="M9.23755 6.25H9.25005" stroke="#0080FF" stroke-width="1.5" stroke-linecap="round" stroke-linejoin="round"/>
<path d="M9.23755 23.75H9.25005" stroke="#0080FF" stroke-width="1.5" stroke-linecap="round" stroke-linejoin="round"/>
<path d="M21.75 23.75H21.7625" stroke="#0080FF" stroke-width="1.5" stroke-linecap="round" stroke-linejoin="round"/>
</svg>
