<svg width="25" height="24" viewBox="0 0 25 24" fill="none" xmlns="http://www.w3.org/2000/svg">
<path d="M5.5 2H19.5C20.05 2 20.5 2.45 20.5 3V21C20.5 21.55 20.05 22 19.5 22H5.5C4.95 22 4.5 21.55 4.5 21V3C4.5 2.45 4.95 2 5.5 2Z" stroke="#0080FF" stroke-width="1.5" stroke-linecap="round" stroke-linejoin="round"/>
<path d="M12.5 17C15.2614 17 17.5 14.7614 17.5 12C17.5 9.23858 15.2614 7 12.5 7C9.73858 7 7.5 9.23858 7.5 12C7.5 14.7614 9.73858 17 12.5 17Z" stroke="#0080FF" stroke-width="1.5" stroke-linecap="round" stroke-linejoin="round"/>
<path d="M12.5 13C13.0523 13 13.5 12.5523 13.5 12C13.5 11.4477 13.0523 11 12.5 11C11.9477 11 11.5 11.4477 11.5 12C11.5 12.5523 11.9477 13 12.5 13Z" stroke="#0080FF" stroke-width="1.5" stroke-linecap="round" stroke-linejoin="round"/>
<path d="M17.4902 5H17.5102" stroke="#0080FF" stroke-width="1.5" stroke-linecap="round" stroke-linejoin="round"/>
<path d="M7.49023 5H7.50023" stroke="#0080FF" stroke-width="1.5" stroke-linecap="round" stroke-linejoin="round"/>
<path d="M7.49023 19H7.50023" stroke="#0080FF" stroke-width="1.5" stroke-linecap="round" stroke-linejoin="round"/>
<path d="M17.5 19H17.51" stroke="#0080FF" stroke-width="1.5" stroke-linecap="round" stroke-linejoin="round"/>
</svg>
