<svg width="22" height="22" viewBox="0 0 22 22" fill="none" xmlns="http://www.w3.org/2000/svg">
<g clip-path="url(#clip0_130_1650)">
<path d="M1.83301 11.1869C1.83301 9.08921 1.83301 8.04035 2.30894 7.17086C2.78487 6.30137 3.65438 5.76173 5.39337 4.68246L7.2267 3.54464C9.06495 2.40378 9.9841 1.83334 10.9997 1.83334C12.0152 1.83334 12.9344 2.40378 14.7727 3.54464L16.606 4.68245C18.345 5.76173 19.2145 6.30137 19.6904 7.17086C20.1663 8.04035 20.1663 9.08921 20.1663 11.1869V12.5813C20.1663 16.157 20.1663 17.945 19.0924 19.0558C18.0185 20.1667 16.2899 20.1667 12.833 20.1667H9.16634C5.70937 20.1667 3.9809 20.1667 2.90695 19.0558C1.83301 17.945 1.83301 16.157 1.83301 12.5813V11.1869Z" stroke="#1C274C" stroke-width="2"/>
<path d="M13.75 16.5H8.25" stroke="#1C274C" stroke-width="2" stroke-linecap="round"/>
</g>
<defs>
<clipPath id="clip0_130_1650">
<rect width="22" height="22" fill="white"/>
</clipPath>
</defs>
</svg>
