<svg width="22" height="22" viewBox="0 0 22 22" fill="none" xmlns="http://www.w3.org/2000/svg">
<path fill-rule="evenodd" clip-rule="evenodd" d="M2.30894 7.17086C1.83301 8.04035 1.83301 9.08921 1.83301 11.1869V12.5813C1.83301 16.157 1.83301 17.945 2.90695 19.0558C3.9809 20.1667 5.70937 20.1667 9.16634 20.1667H12.833C16.2899 20.1667 18.0185 20.1667 19.0924 19.0558C20.1663 17.945 20.1663 16.157 20.1663 12.5813V11.1869C20.1663 9.08921 20.1663 8.04035 19.6904 7.17086C19.2145 6.30137 18.345 5.76173 16.606 4.68245L14.7727 3.54464C12.9344 2.40378 12.0152 1.83334 10.9997 1.83334C9.9841 1.83334 9.06495 2.40378 7.2267 3.54464L5.39337 4.68246C3.65438 5.76173 2.78487 6.30137 2.30894 7.17086ZM8.24967 15.8125C7.86998 15.8125 7.56217 16.1203 7.56217 16.5C7.56217 16.8797 7.86998 17.1875 8.24967 17.1875H13.7497C14.1294 17.1875 14.4372 16.8797 14.4372 16.5C14.4372 16.1203 14.1294 15.8125 13.7497 15.8125H8.24967Z" fill="#3C56AF"/>
</svg>
