<svg width="25" height="25" viewBox="0 0 25 25" fill="none" xmlns="http://www.w3.org/2000/svg">
<path d="M16.8643 2.08334H8.13509C4.34342 2.08334 2.08301 4.34376 2.08301 8.13543V16.8542C2.08301 20.6563 4.34342 22.9167 8.13509 22.9167H16.8538C20.6455 22.9167 22.9059 20.6563 22.9059 16.8646V8.13543C22.9163 4.34376 20.6559 2.08334 16.8643 2.08334ZM7.98926 5.72918C7.98926 5.30209 8.34342 4.94793 8.77051 4.94793C9.19759 4.94793 9.55176 5.30209 9.55176 5.72918V9.79168C9.55176 10.2188 9.19759 10.5729 8.77051 10.5729C8.34342 10.5729 7.98926 10.2188 7.98926 9.79168V5.72918ZM9.91928 17.1159C9.70736 17.21 9.55176 17.4096 9.55176 17.6415V19.2708C9.55176 19.6979 9.19759 20.0521 8.77051 20.0521C8.34342 20.0521 7.98926 19.6979 7.98926 19.2708V17.6415C7.98926 17.4096 7.83363 17.21 7.62179 17.1157C6.62754 16.6733 5.93717 15.6854 5.93717 14.5313C5.93717 12.9688 7.20801 11.6875 8.77051 11.6875C10.333 11.6875 11.6143 12.9583 11.6143 14.5313C11.6143 15.6856 10.9154 16.6736 9.91928 17.1159ZM17.0101 19.2708C17.0101 19.6979 16.6559 20.0521 16.2288 20.0521C15.8018 20.0521 15.4476 19.6979 15.4476 19.2708V15.2083C15.4476 14.7813 15.8018 14.4271 16.2288 14.4271C16.6559 14.4271 17.0101 14.7813 17.0101 15.2083V19.2708ZM16.2288 13.3021C14.6663 13.3021 13.3851 12.0313 13.3851 10.4583C13.3851 9.30402 14.0839 8.31607 15.0801 7.87369C15.292 7.77958 15.4476 7.58002 15.4476 7.34815V5.72918C15.4476 5.30209 15.8018 4.94793 16.2288 4.94793C16.6559 4.94793 17.0101 5.30209 17.0101 5.72918V7.35856C17.0101 7.59044 17.1657 7.78996 17.3776 7.88423C18.3718 8.32668 19.0622 9.31454 19.0622 10.4688C19.0622 12.0313 17.7913 13.3021 16.2288 13.3021Z" fill="#3C56AF"/>
</svg>
