<svg width="25" height="25" viewBox="0 0 25 25" fill="none" xmlns="http://www.w3.org/2000/svg">
<path d="M9.37468 22.9167H15.6247C20.833 22.9167 22.9163 20.8333 22.9163 15.625V9.37501C22.9163 4.16668 20.833 2.08334 15.6247 2.08334H9.37468C4.16634 2.08334 2.08301 4.16668 2.08301 9.37501V15.625C2.08301 20.8333 4.16634 22.9167 9.37468 22.9167Z" stroke="#292D32" stroke-width="2" stroke-linecap="round" stroke-linejoin="round"/>
<path d="M16.2188 19.2709V15.2084" stroke="#292D32" stroke-width="2" stroke-miterlimit="10" stroke-linecap="round" stroke-linejoin="round"/>
<path d="M16.2188 7.76042V5.72917" stroke="#292D32" stroke-width="2" stroke-miterlimit="10" stroke-linecap="round" stroke-linejoin="round"/>
<path d="M16.2191 13.1771C17.7148 13.1771 18.9274 11.9645 18.9274 10.4687C18.9274 8.97292 17.7148 7.76036 16.2191 7.76036C14.7232 7.76036 13.5107 8.97292 13.5107 10.4687C13.5107 11.9645 14.7232 13.1771 16.2191 13.1771Z" stroke="#292D32" stroke-width="2" stroke-miterlimit="10" stroke-linecap="round" stroke-linejoin="round"/>
<path d="M8.78125 19.2708V17.2396" stroke="#292D32" stroke-width="2" stroke-miterlimit="10" stroke-linecap="round" stroke-linejoin="round"/>
<path d="M8.78125 9.79167V5.72917" stroke="#292D32" stroke-width="2" stroke-miterlimit="10" stroke-linecap="round" stroke-linejoin="round"/>
<path d="M8.78158 17.2397C10.2773 17.2397 11.49 16.0271 11.49 14.5313C11.49 13.0356 10.2773 11.823 8.78158 11.823C7.28581 11.823 6.07324 13.0356 6.07324 14.5313C6.07324 16.0271 7.28581 17.2397 8.78158 17.2397Z" stroke="#292D32" stroke-width="2" stroke-miterlimit="10" stroke-linecap="round" stroke-linejoin="round"/>
</svg>
