<svg width="150" height="134" viewBox="0 0 150 134" fill="none" xmlns="http://www.w3.org/2000/svg">
<g filter="url(#filter0_d_27082_1068)">
<path d="M16.6183 35.8474L38.998 42.2414L41.8858 32.1305C42.4439 30.1728 44.4813 29.0371 46.439 29.5935L67.8602 35.7128C69.8179 36.2709 70.9535 38.3101 70.3954 40.266L67.5059 50.3857L68.8311 50.7631L82.4959 46.8601L79.6046 36.7421C79.0483 34.7844 80.1821 32.7452 82.1398 32.1889L103.561 26.0678C105.519 25.5115 107.558 26.6472 108.114 28.6049L111.002 38.7158L133.382 32.3236C135.339 31.7655 137.379 32.9012 137.935 34.8588L148.666 72.4217C149.224 74.3794 148.088 76.4186 146.131 76.9749L136.108 79.8397C135.758 86.9087 130.932 93.0705 124.089 95.0247L81.1335 107.297L80.2902 110.249C79.7339 112.206 77.6947 113.342 75.737 112.784L25.9107 98.5503C19.0685 96.5944 14.2425 90.4343 13.8917 83.3636L3.86934 80.5005C1.91165 79.9442 0.777778 77.905 1.33408 75.9474L12.0651 38.3845C12.6214 36.4268 14.6606 35.2911 16.6183 35.8474ZM99.3232 110.727C96.8624 106.56 103.203 102.816 105.664 106.98L113.149 119.665C115.61 123.83 109.269 127.574 106.809 123.41L99.3232 110.727ZM118.046 110.963C113.629 108.992 116.627 102.278 121.042 104.248L136.429 111.11C140.846 113.082 137.848 119.794 133.433 117.824L118.046 110.963ZM44.1943 18.3983C41.4694 22.3934 35.3891 18.2441 38.1139 14.249L46.2246 2.39658C48.9494 -1.59676 55.0298 2.55249 52.305 6.54583L44.1943 18.3983ZM35.2845 20.7422C36.8578 25.329 29.8827 27.719 28.3113 23.1339L23.3205 8.57793C21.7472 3.99108 28.7223 1.6011 30.2938 6.18618L35.2845 20.7422ZM76.9116 95.2461L59.0089 90.3546C54.3477 89.086 56.277 81.9958 60.9401 83.2661L78.9296 88.1807L81.7093 78.4489L64.2389 73.8196C59.5599 72.5883 61.4308 65.4715 66.1133 66.7028L83.7326 71.3711L86.0251 63.3419C77.9977 61.0476 69.9685 58.7533 61.941 56.4608C59.9834 55.9045 58.8477 53.8653 59.404 51.9076L62.2954 41.7896L47.9626 37.6935L45.073 47.8062C44.5167 49.7621 42.4775 50.8977 40.5198 50.3414L30.8695 47.5847L21.5949 80.0488C20.2006 84.9333 23.0423 90.064 27.9286 91.4601L74.2152 104.684C75.1134 101.537 76.0116 98.3908 76.9116 95.2461ZM82.2461 54.597L91.5899 57.2651C93.5476 57.8232 94.6832 59.8624 94.1252 61.8183L83.5182 98.9489L122.071 87.9362C126.958 86.5402 129.799 81.4076 128.405 76.5231L119.13 44.0591L109.48 46.8158C107.523 47.3739 105.483 46.2383 104.927 44.2806L102.039 34.1697L87.7046 38.264L90.596 48.382C91.1523 50.3397 90.0167 52.3789 88.059 52.9352L82.2461 54.597ZM131.86 40.4237L126.219 42.0341L134.925 72.5121L140.566 70.8999L131.86 40.4237ZM23.7811 45.5597L18.1401 43.9475L9.43414 74.4255L15.0751 76.0359L23.7811 45.5597Z" fill="#3C56AF"/>
</g>
<defs>
<filter id="filter0_d_27082_1068" x="-2.80737" y="0.774231" width="155.615" height="132.452" filterUnits="userSpaceOnUse" color-interpolation-filters="sRGB">
<feFlood flood-opacity="0" result="BackgroundImageFix"/>
<feColorMatrix in="SourceAlpha" type="matrix" values="0 0 0 0 0 0 0 0 0 0 0 0 0 0 0 0 0 0 127 0" result="hardAlpha"/>
<feOffset dy="4"/>
<feGaussianBlur stdDeviation="2"/>
<feComposite in2="hardAlpha" operator="out"/>
<feColorMatrix type="matrix" values="0 0 0 0 0 0 0 0 0 0 0 0 0 0 0 0 0 0 0.25 0"/>
<feBlend mode="normal" in2="BackgroundImageFix" result="effect1_dropShadow_27082_1068"/>
<feBlend mode="normal" in="SourceGraphic" in2="effect1_dropShadow_27082_1068" result="shape"/>
</filter>
</defs>
</svg>
