<svg width="26" height="25" viewBox="0 0 26 25" fill="none" xmlns="http://www.w3.org/2000/svg">
<g clip-path="url(#clip0_27237_1431)">
<path fill-rule="evenodd" clip-rule="evenodd" d="M13.7083 9.37516C13.7083 8.79987 13.242 8.3335 12.6667 8.3335C12.0914 8.3335 11.625 8.79987 11.625 9.37516V11.4585H9.54167C8.96638 11.4585 8.5 11.9249 8.5 12.5002C8.5 13.0755 8.96638 13.5418 9.54167 13.5418H11.625V15.6252C11.625 16.2005 12.0914 16.6668 12.6667 16.6668C13.242 16.6668 13.7083 16.2005 13.7083 15.6252V13.5418H15.7917C16.367 13.5418 16.8333 13.0755 16.8333 12.5002C16.8333 11.9249 16.367 11.4585 15.7917 11.4585H13.7083V9.37516ZM7.71882 2.48748C9.07165 2.18683 10.7128 2.0835 12.6667 2.0835C14.6205 2.0835 16.2617 2.18683 17.6145 2.48748C18.9792 2.79076 20.1133 3.3085 20.9858 4.18098C21.8583 5.05345 22.376 6.18768 22.6794 7.55232C22.98 8.90514 23.0833 10.5463 23.0833 12.5002C23.0833 14.454 22.98 16.0952 22.6794 17.448C22.376 18.8127 21.8583 19.9468 20.9858 20.8193C20.1133 21.6918 18.9792 22.2095 17.6145 22.5129C16.2617 22.8135 14.6205 22.9168 12.6667 22.9168C10.7128 22.9168 9.07165 22.8135 7.71882 22.5129C6.35419 22.2095 5.21996 21.6918 4.34748 20.8193C3.475 19.9468 2.95726 18.8127 2.65398 17.448C2.35333 16.0952 2.25 14.454 2.25 12.5002C2.25 10.5463 2.35333 8.90514 2.65398 7.55232C2.95726 6.18768 3.475 5.05345 4.34748 4.18098C5.21996 3.3085 6.35419 2.79076 7.71882 2.48748Z" fill="#3C56AF"/>
</g>
<defs>
<clipPath id="clip0_27237_1431">
<rect width="25" height="25" fill="white" transform="translate(0.166748)"/>
</clipPath>
</defs>
</svg>
