<svg width="22" height="22" viewBox="0 0 22 22" fill="none" xmlns="http://www.w3.org/2000/svg">
<g clip-path="url(#clip0_130_1653)">
<path d="M22 0H0V22H22V0Z" fill="white"/>
<path fill-rule="evenodd" clip-rule="evenodd" d="M11.9163 8.25001C11.9163 7.74375 11.5059 7.33334 10.9997 7.33334C10.4934 7.33334 10.083 7.74375 10.083 8.25001V10.0833H8.24967C7.74342 10.0833 7.33301 10.4937 7.33301 11C7.33301 11.5063 7.74342 11.9167 8.24967 11.9167H10.083V13.75C10.083 14.2563 10.4934 14.6667 10.9997 14.6667C11.5059 14.6667 11.9163 14.2563 11.9163 13.75V11.9167H13.7497C14.2559 11.9167 14.6663 11.5063 14.6663 11C14.6663 10.4937 14.2559 10.0833 13.7497 10.0833H11.9163V8.25001ZM6.64557 2.18885C7.83606 1.92428 9.28028 1.83334 10.9997 1.83334C12.7191 1.83334 14.1633 1.92428 15.3538 2.18885C16.5547 2.45573 17.5527 2.91134 18.3205 3.67913C19.0883 4.44691 19.5439 5.44503 19.8109 6.64591C20.0754 7.83639 20.1663 9.28062 20.1663 11C20.1663 12.7194 20.0754 14.1636 19.8109 15.3541C19.5439 16.555 19.0883 17.5531 18.3205 18.3209C17.5527 19.0887 16.5547 19.5443 15.3538 19.8112C14.1633 20.0757 12.7191 20.1667 10.9997 20.1667C9.28028 20.1667 7.83606 20.0757 6.64557 19.8112C5.44469 19.5443 4.44657 19.0887 3.67879 18.3209C2.91101 17.5531 2.4554 16.555 2.18851 15.3541C1.92394 14.1636 1.83301 12.7194 1.83301 11C1.83301 9.28062 1.92394 7.83639 2.18851 6.64591C2.4554 5.44503 2.91101 4.44691 3.67879 3.67913C4.44657 2.91134 5.44469 2.45573 6.64557 2.18885Z" fill="#3C56AF"/>
</g>
<defs>
<clipPath id="clip0_130_1653">
<rect width="22" height="22" fill="white"/>
</clipPath>
</defs>
</svg>
