<svg width="22" height="22" viewBox="0 0 22 22" fill="none" xmlns="http://www.w3.org/2000/svg">
<g clip-path="url(#clip0_130_1656)">
<path fill-rule="evenodd" clip-rule="evenodd" d="M13.0624 1.1908L18.4637 4.30923C19.74 5.04609 20.5262 6.40786 20.5262 7.88158V14.1184C20.5262 15.5922 19.74 16.9539 18.4637 17.6908L13.0624 20.8092C11.7861 21.5461 10.2137 21.5461 8.93741 20.8092L3.53613 17.6908C2.25985 16.9539 1.47363 15.5922 1.47363 14.1184V7.88158C1.47363 6.40786 2.25985 5.04609 3.53613 4.30923L8.93741 1.1908C10.2137 0.453938 11.7861 0.453938 13.0624 1.1908ZM15.8264 7.94571C15.6481 7.61046 15.2318 7.48319 14.8966 7.66145L10.992 9.73684L7.08746 7.66145C6.7522 7.48319 6.33592 7.61046 6.15767 7.94571C5.97941 8.28096 6.10668 8.69724 6.44193 8.8755L10.3045 10.929L10.3045 15.5826C10.3045 15.9623 10.6123 16.2701 10.992 16.2701C11.3717 16.2701 11.6795 15.9623 11.6795 15.5826L11.6795 10.929L15.5421 8.8755C15.8774 8.69724 16.0046 8.28096 15.8264 7.94571Z" fill="#3C56AF"/>
</g>
<defs>
<clipPath id="clip0_130_1656">
<rect width="22" height="22" fill="white"/>
</clipPath>
</defs>
</svg>
