<svg width="22" height="22" viewBox="0 0 22 22" fill="none" xmlns="http://www.w3.org/2000/svg">
<g clip-path="url(#clip0_130_1654)">
<path d="M13.0624 1.1908L18.4637 4.30923C19.74 5.04609 20.5262 6.40786 20.5262 7.88158V14.1184C20.5262 15.5922 19.74 16.9539 18.4637 17.6908L13.0624 20.8092C11.7861 21.5461 10.2137 21.5461 8.93741 20.8092L3.53613 17.6908C2.25985 16.9539 1.47363 15.5922 1.47363 14.1184V7.88158C1.47363 6.40786 2.25985 5.04609 3.53613 4.30923L8.93741 1.1908C10.2137 0.453938 11.7861 0.453938 13.0624 1.1908ZM9.76848 2.30426L9.62491 2.38158L4.22363 5.50001C3.41756 5.9654 2.90471 6.80469 2.85296 7.72713L2.84863 7.88158V14.1184C2.84863 15.0492 3.31906 15.913 4.09203 16.419L4.22363 16.5L9.62491 19.6184C10.4285 20.0824 11.4082 20.1082 12.2313 19.6958L12.3749 19.6184L17.7762 16.5C18.5823 16.0346 19.0951 15.1953 19.1469 14.2729L19.1512 14.1184V7.88158C19.1512 6.95081 18.6808 6.08702 17.9078 5.58099L17.7762 5.50001L12.3749 2.38158C11.5713 1.91763 10.5916 1.89186 9.76848 2.30426ZM15.8264 7.94571C16.0046 8.28096 15.8774 8.69724 15.5421 8.8755L11.6795 10.929L11.6795 15.5826C11.6795 15.9623 11.3717 16.2701 10.992 16.2701C10.6123 16.2701 10.3045 15.9623 10.3045 15.5826L10.3045 10.929L6.44193 8.8755C6.10668 8.69724 5.97941 8.28096 6.15767 7.94571C6.33592 7.61046 6.7522 7.48319 7.08746 7.66145L10.992 9.73684L14.8966 7.66145C15.2318 7.48319 15.6481 7.61046 15.8264 7.94571Z" fill="black"/>
</g>
<defs>
<clipPath id="clip0_130_1654">
<rect width="22" height="22" fill="white"/>
</clipPath>
</defs>
</svg>
