<svg width="96" height="26" viewBox="0 0 96 26" fill="none" xmlns="http://www.w3.org/2000/svg">
<g filter="url(#filter0_d_27082_1070)">
<path d="M14.5367 8.12C16.3847 8.84 17.4647 10.352 17.4647 12.296C17.4647 15.128 15.4967 17 12.0407 17H4.98469V0.319999H12.2567C15.1607 0.319999 16.8887 1.928 16.8887 4.376C16.8887 6.008 15.9767 7.376 14.5367 8.12ZM13.8407 4.976C13.8407 3.68 13.0247 2.792 11.3927 2.792H8.00869V7.16H11.3447C12.7847 7.16 13.8407 6.32 13.8407 4.976ZM11.6087 14.528C13.3847 14.528 14.4167 13.64 14.4167 12.08C14.4167 10.52 13.2887 9.632 11.5847 9.632H8.00869V14.528H11.6087ZM22.0241 11.648C22.4321 13.544 23.8961 14.696 25.7921 14.696C27.5201 14.696 28.4321 14.048 29.0081 12.92L31.4081 14.456C30.4481 16.016 28.7681 17.312 25.6961 17.312C21.6641 17.312 19.0241 14.456 19.0241 10.688C19.0241 7.016 21.8801 4.064 25.5041 4.064C29.4881 4.064 31.9121 7.184 31.9121 10.424C31.9121 10.904 31.8881 11.384 31.8401 11.648H22.0241ZM22.0241 9.512H28.9841C28.6481 7.616 27.3521 6.464 25.5761 6.464C23.8001 6.464 22.4081 7.568 22.0241 9.512ZM36.8741 5.768C37.7381 4.76 39.0581 4.064 40.6421 4.064V6.92C38.4341 6.92 37.0421 8.096 37.0421 9.8V17H33.9941V4.352H36.8741V5.768ZM44.2429 11.648C44.6509 13.544 46.1149 14.696 48.0109 14.696C49.7389 14.696 50.6509 14.048 51.2269 12.92L53.6269 14.456C52.6669 16.016 50.9869 17.312 47.9149 17.312C43.8829 17.312 41.2429 14.456 41.2429 10.688C41.2429 7.016 44.0989 4.064 47.7229 4.064C51.7069 4.064 54.1309 7.184 54.1309 10.424C54.1309 10.904 54.1069 11.384 54.0589 11.648H44.2429ZM44.2429 9.512H51.2029C50.8669 7.616 49.5709 6.464 47.7949 6.464C46.0189 6.464 44.6269 7.568 44.2429 9.512ZM60.5831 17.288C57.8471 17.288 55.8551 16.184 55.1591 14.048L57.8231 13.016C58.1831 14.192 59.1671 14.888 60.7031 14.888C61.9271 14.888 62.6951 14.384 62.6951 13.496C62.6951 11 55.7591 12.152 55.7591 7.808C55.7591 5.504 57.6791 4.064 60.6551 4.064C63.1031 4.064 64.8791 5.072 65.4071 6.8L62.7431 7.832C62.4071 6.872 61.6631 6.416 60.6071 6.416C59.4791 6.416 58.8791 6.896 58.8791 7.664C58.8791 9.968 65.8151 8.648 65.8151 13.28C65.8151 15.8 63.7511 17.288 60.5831 17.288ZM68.0081 17V0.319999H71.0801V17H68.0081ZM81.03 4.064C84.15 4.064 86.07 6.104 86.07 9.104V17H82.998V9.68C82.998 7.856 81.87 6.776 80.142 6.776C78.486 6.8 77.238 7.976 77.214 9.392V17H74.166V4.352H77.046V5.744C77.91 4.76 79.302 4.064 81.03 4.064ZM90.0156 17.24C89.0076 17.24 88.2396 16.448 88.2396 15.464C88.2396 14.408 89.0076 13.64 90.0156 13.64C91.0476 13.64 91.8156 14.408 91.8156 15.464C91.8156 16.448 91.0476 17.24 90.0156 17.24Z" fill="#3C56AF"/>
</g>
<defs>
<filter id="filter0_d_27082_1070" x="0.984619" y="0.320007" width="94.8311" height="24.992" filterUnits="userSpaceOnUse" color-interpolation-filters="sRGB">
<feFlood flood-opacity="0" result="BackgroundImageFix"/>
<feColorMatrix in="SourceAlpha" type="matrix" values="0 0 0 0 0 0 0 0 0 0 0 0 0 0 0 0 0 0 127 0" result="hardAlpha"/>
<feOffset dy="4"/>
<feGaussianBlur stdDeviation="2"/>
<feComposite in2="hardAlpha" operator="out"/>
<feColorMatrix type="matrix" values="0 0 0 0 0 0 0 0 0 0 0 0 0 0 0 0 0 0 0.25 0"/>
<feBlend mode="normal" in2="BackgroundImageFix" result="effect1_dropShadow_27082_1070"/>
<feBlend mode="normal" in="SourceGraphic" in2="effect1_dropShadow_27082_1070" result="shape"/>
</filter>
</defs>
</svg>
